<?xml version="1.0" encoding="UTF-8"?>
<!DOCTYPE svg PUBLIC "-//W3C//DTD SVG 1.1//EN" "http://www.w3.org/Graphics/SVG/1.1/DTD/svg11.dtd">
<!-- Creator: CorelDRAW 2020 (64-Bit) -->
<svg xmlns="http://www.w3.org/2000/svg" xml:space="preserve" width="192px" height="192px" version="1.1" style="shape-rendering:geometricPrecision; text-rendering:geometricPrecision; image-rendering:optimizeQuality; fill-rule:evenodd; clip-rule:evenodd"
viewBox="0 0 192 192"
 xmlns:xlink="http://www.w3.org/1999/xlink"
 xmlns:xodm="http://www.corel.com/coreldraw/odm/2003">
 <defs>
  <style type="text/css">
   <![CDATA[
    .str1 {stroke:#222222;stroke-width:2;stroke-miterlimit:2.61313}
    .str0 {stroke:#222222;stroke-width:2;stroke-linejoin:bevel;stroke-miterlimit:2.61313}
    .fil0 {fill:none}
    .fil2 {fill:#FEFEFE}
    .fil1 {fill:#0EA5E9}
   ]]>
  </style>
 </defs>
 <g id="Layer_x0020_1">
  <metadata id="CorelCorpID_0Corel-Layer"/>
  <g id="_1644950158672">
   <line class="fil0 str0" x1="35.67" y1="142.38" x2="38.23" y2= "148.46" />
   <line class="fil0 str0" x1="41.16" y1="154.17" x2="38.23" y2= "148.46" />
   <line class="fil0 str0" x1="41.16" y1="154.17" x2="44.42" y2= "159.43" />
   <line class="fil0 str0" x1="35.67" y1="142.38" x2="33.5" y2= "136.01" />
   <line class="fil0 str0" x1="44.42" y1="159.43" x2="47.99" y2= "164.15" />
   <line class="fil0 str0" x1="47.99" y1="164.15" x2="51.82" y2= "168.25" />
   <line class="fil0 str0" x1="55.87" y1="171.65" x2="51.82" y2= "168.25" />
   <line class="fil0 str0" x1="55.87" y1="171.65" x2="60.08" y2= "174.26" />
   <line class="fil0 str0" x1="60.08" y1="174.26" x2="64.41" y2= "176.03" />
   <line class="fil0 str0" x1="64.41" y1="176.03" x2="68.78" y2= "176.87" />
   <line class="fil0 str0" x1="68.78" y1="176.87" x2="73.11" y2= "176.72" />
   <line class="fil0 str0" x1="73.11" y1="176.72" x2="77.34" y2= "175.56" />
   <line class="fil0 str0" x1="77.34" y1="175.56" x2="81.37" y2= "173.34" />
   <line class="fil0 str0" x1="81.37" y1="173.34" x2="85.12" y2= "170.06" />
   <line class="fil0 str0" x1="85.12" y1="170.06" x2="88.49" y2= "165.74" />
   <line class="fil0 str0" x1="50.27" y1="131.48" x2="51.55" y2= "133.83" />
   <line class="fil0 str0" x1="51.55" y1="133.83" x2="52.96" y2= "135.95" />
   <line class="fil0 str0" x1="54.48" y1="137.81" x2="52.96" y2= "135.95" />
   <line class="fil0 str0" x1="57.78" y1="140.6" x2="56.1" y2= "139.37" />
   <line class="fil0 str0" x1="56.1" y1="139.37" x2="54.48" y2= "137.81" />
   <line class="fil0 str0" x1="59.51" y1="141.49" x2="57.78" y2= "140.6" />
   <line class="fil0 str0" x1="59.51" y1="141.49" x2="61.25" y2= "142" />
   <line class="fil0 str0" x1="61.25" y1="142" x2="62.98" y2= "142.12" />
   <line class="fil0 str0" x1="62.98" y1="142.12" x2="64.65" y2= "141.85" />
   <line class="fil0 str0" x1="64.65" y1="141.85" x2="66.26" y2= "141.18" />
   <line class="fil0 str0" x1="66.26" y1="141.18" x2="67.76" y2= "140.11" />
   <line class="fil0 str0" x1="33.5" y1="136.01" x2="1.5" y2= "30.64" />
   <line class="fil0 str0" x1="1.5" y1="30.64" x2="13.27" y2= "15.13" />
   <line class="fil0 str0" x1="48.2" y1="126.26" x2="13.27" y2= "15.13" />
   <line class="fil0 str0" x1="49.15" y1="128.94" x2="48.2" y2= "126.26" />
   <line class="fil0 str0" x1="49.15" y1="128.94" x2="50.27" y2= "131.48" />
   <line class="fil0 str0" x1="67.76" y1="140.11" x2="69.13" y2= "138.66" />
   <line class="fil0 str0" x1="69.13" y1="138.66" x2="70.33" y2= "136.85" />
   <line class="fil0 str0" x1="70.33" y1="136.85" x2="71.35" y2= "134.71" />
   <line class="fil0 str0" x1="83.74" y1="103.59" x2="71.35" y2= "134.71" />
   <line class="fil0 str0" x1="83.74" y1="103.59" x2="83.88" y2= "103.23" />
   <line class="fil0 str0" x1="83.88" y1="103.23" x2="84.04" y2= "102.87" />
   <line class="fil0 str0" x1="84.04" y1="102.87" x2="84.19" y2= "102.5" />
   <line class="fil0 str0" x1="84.19" y1="102.5" x2="84.35" y2= "102.13" />
   <line class="fil0 str0" x1="104.53" y1="166.98" x2="77.34" y2= "175.56" />
   <line class="fil0 str0" x1="40.06" y1="15.56" x2="13.27" y2= "15.13" />
   <line class="fil0 str0" x1="84.35" y1="102.13" x2="84.52" y2= "101.76" />
   <line class="fil0 str0" x1="84.52" y1="101.76" x2="84.69" y2= "101.39" />
   <line class="fil0 str0" x1="84.69" y1="101.39" x2="84.86" y2= "101.02" />
   <line class="fil0 str0" x1="84.86" y1="101.02" x2="85.04" y2= "100.65" />
   <line class="fil0 str0" x1="85.23" y1="100.28" x2="85.04" y2= "100.65" />
   <line class="fil0 str0" x1="104.53" y1="166.98" x2="108.72" y2= "164.77" />
   <line class="fil0 str0" x1="74.98" y1="120.88" x2="40.06" y2= "15.56" />
   <line class="fil0 str0" x1="75.89" y1="123.3" x2="74.98" y2= "120.88" />
   <line class="fil0 str0" x1="85.42" y1="99.91" x2="85.23" y2= "100.28" />
   <line class="fil0 str0" x1="85.61" y1="99.54" x2="85.42" y2= "99.91" />
   <line class="fil0 str0" x1="85.81" y1="99.16" x2="85.61" y2= "99.54" />
   <line class="fil0 str0" x1="86.01" y1="98.79" x2="85.81" y2= "99.16" />
   <line class="fil0 str0" x1="86.22" y1="98.41" x2="86.01" y2= "98.79" />
   <line class="fil0 str0" x1="86.43" y1="98.04" x2="86.22" y2= "98.41" />
   <line class="fil0 str0" x1="86.64" y1="97.66" x2="86.43" y2= "98.04" />
   <line class="fil0 str0" x1="86.86" y1="97.29" x2="86.64" y2= "97.66" />
   <line class="fil0 str0" x1="87.09" y1="96.91" x2="86.86" y2= "97.29" />
   <line class="fil0 str0" x1="87.32" y1="96.54" x2="87.09" y2= "96.91" />
   <line class="fil0 str0" x1="87.55" y1="96.16" x2="87.32" y2= "96.54" />
   <line class="fil0 str0" x1="87.79" y1="95.79" x2="87.55" y2= "96.16" />
   <line class="fil0 str0" x1="88.03" y1="95.41" x2="87.79" y2= "95.79" />
   <line class="fil0 str0" x1="88.27" y1="95.04" x2="88.03" y2= "95.41" />
   <line class="fil0 str0" x1="88.52" y1="94.66" x2="88.27" y2= "95.04" />
   <line class="fil0 str0" x1="88.78" y1="94.29" x2="88.52" y2= "94.66" />
   <line class="fil0 str0" x1="89.03" y1="93.91" x2="88.78" y2= "94.29" />
   <line class="fil0 str0" x1="89.29" y1="93.54" x2="89.03" y2= "93.91" />
   <line class="fil0 str0" x1="89.56" y1="93.17" x2="89.29" y2= "93.54" />
   <line class="fil0 str0" x1="89.83" y1="92.8" x2="89.56" y2= "93.17" />
   <line class="fil0 str0" x1="90.1" y1="92.42" x2="89.83" y2= "92.8" />
   <line class="fil0 str0" x1="90.38" y1="92.05" x2="90.1" y2= "92.42" />
   <line class="fil0 str0" x1="90.66" y1="91.68" x2="90.38" y2= "92.05" />
   <line class="fil0 str0" x1="90.94" y1="91.32" x2="90.66" y2= "91.68" />
   <line class="fil0 str0" x1="91.23" y1="90.95" x2="90.94" y2= "91.32" />
   <line class="fil0 str0" x1="91.52" y1="90.58" x2="91.23" y2= "90.95" />
   <line class="fil0 str0" x1="91.81" y1="90.22" x2="91.52" y2= "90.58" />
   <line class="fil0 str0" x1="92.11" y1="89.85" x2="91.81" y2= "90.22" />
   <line class="fil0 str0" x1="92.41" y1="89.49" x2="92.11" y2= "89.85" />
   <line class="fil0 str0" x1="92.72" y1="89.13" x2="92.41" y2= "89.49" />
   <line class="fil0 str0" x1="93.03" y1="88.77" x2="92.72" y2= "89.13" />
   <line class="fil0 str0" x1="93.34" y1="88.41" x2="93.03" y2= "88.77" />
   <line class="fil0 str0" x1="93.65" y1="88.05" x2="93.34" y2= "88.41" />
   <line class="fil0 str0" x1="93.97" y1="87.69" x2="93.65" y2= "88.05" />
   <line class="fil0 str0" x1="94.29" y1="87.34" x2="93.97" y2= "87.69" />
   <line class="fil0 str0" x1="94.62" y1="86.99" x2="94.29" y2= "87.34" />
   <line class="fil0 str0" x1="94.94" y1="86.64" x2="94.62" y2= "86.99" />
   <line class="fil0 str0" x1="95.27" y1="86.29" x2="94.94" y2= "86.64" />
   <line class="fil0 str0" x1="95.6" y1="85.94" x2="95.27" y2= "86.29" />
   <line class="fil0 str0" x1="95.94" y1="85.6" x2="95.6" y2= "85.94" />
   <line class="fil0 str0" x1="96.28" y1="85.26" x2="95.94" y2= "85.6" />
   <line class="fil0 str0" x1="96.62" y1="84.92" x2="96.28" y2= "85.26" />
   <line class="fil0 str0" x1="96.96" y1="84.58" x2="96.62" y2= "84.92" />
   <line class="fil0 str0" x1="108.72" y1="164.77" x2="112.63" y2= "161.56" />
   <line class="fil0 str0" x1="112.63" y1="161.56" x2="116.15" y2= "157.39" />
   <line class="fil0 str0" x1="88.49" y1="165.74" x2="91.4" y2= "160.44" />
   <line class="fil0 str0" x1="105.81" y1="129.11" x2="91.4" y2= "160.44" />
   <line class="fil0 str0" x1="116.15" y1="157.39" x2="119.22" y2= "152.31" />
   <line class="fil0 str0" x1="119.22" y1="152.31" x2="134.37" y2= "122.47" />
   <line class="fil0 str0" x1="97.31" y1="84.24" x2="96.96" y2= "84.58" />
   <line class="fil0 str0" x1="97.66" y1="83.91" x2="97.31" y2= "84.24" />
   <line class="fil0 str0" x1="98.01" y1="83.58" x2="97.66" y2= "83.91" />
   <line class="fil0 str0" x1="98.36" y1="83.25" x2="98.01" y2= "83.58" />
   <line class="fil0 str0" x1="98.71" y1="82.92" x2="98.36" y2= "83.25" />
   <line class="fil0 str0" x1="99.07" y1="82.6" x2="98.71" y2= "82.92" />
   <line class="fil0 str0" x1="99.43" y1="82.28" x2="99.07" y2= "82.6" />
   <line class="fil0 str0" x1="99.79" y1="81.96" x2="99.43" y2= "82.28" />
   <line class="fil0 str0" x1="100.16" y1="81.65" x2="99.79" y2= "81.96" />
   <line class="fil0 str0" x1="100.52" y1="81.33" x2="100.16" y2= "81.65" />
   <line class="fil0 str0" x1="100.89" y1="81.02" x2="100.52" y2= "81.33" />
   <line class="fil0 str0" x1="101.26" y1="80.72" x2="100.89" y2= "81.02" />
   <line class="fil0 str0" x1="101.63" y1="80.41" x2="101.26" y2= "80.72" />
   <line class="fil0 str0" x1="102" y1="80.11" x2="101.63" y2= "80.41" />
   <line class="fil0 str0" x1="102.38" y1="79.82" x2="102" y2= "80.11" />
   <line class="fil0 str0" x1="102.75" y1="79.52" x2="102.38" y2= "79.82" />
   <line class="fil0 str0" x1="105.81" y1="129.11" x2="105.98" y2= "128.74" />
   <line class="fil0 str0" x1="105.98" y1="128.74" x2="106.16" y2= "128.37" />
   <line class="fil0 str0" x1="106.16" y1="128.37" x2="106.34" y2= "128" />
   <line class="fil0 str0" x1="106.34" y1="128" x2="106.52" y2= "127.63" />
   <line class="fil0 str0" x1="106.52" y1="127.63" x2="106.71" y2= "127.25" />
   <line class="fil0 str0" x1="106.71" y1="127.25" x2="106.91" y2= "126.88" />
   <line class="fil0 str0" x1="106.91" y1="126.88" x2="107.11" y2= "126.5" />
   <line class="fil0 str0" x1="107.11" y1="126.5" x2="107.31" y2= "126.13" />
   <line class="fil0 str0" x1="107.31" y1="126.13" x2="107.52" y2= "125.75" />
   <line class="fil0 str0" x1="107.52" y1="125.75" x2="107.74" y2= "125.37" />
   <line class="fil0 str0" x1="107.74" y1="125.37" x2="107.96" y2= "124.99" />
   <line class="fil0 str0" x1="107.96" y1="124.99" x2="108.18" y2= "124.61" />
   <line class="fil0 str0" x1="108.18" y1="124.61" x2="108.41" y2= "124.22" />
   <line class="fil0 str0" x1="108.41" y1="124.22" x2="108.64" y2= "123.84" />
   <line class="fil0 str0" x1="108.64" y1="123.84" x2="108.87" y2= "123.46" />
   <line class="fil0 str0" x1="108.87" y1="123.46" x2="109.11" y2= "123.07" />
   <line class="fil0 str0" x1="109.11" y1="123.07" x2="109.36" y2= "122.69" />
   <line class="fil0 str0" x1="109.36" y1="122.69" x2="109.61" y2= "122.3" />
   <line class="fil0 str0" x1="109.61" y1="122.3" x2="109.86" y2= "121.92" />
   <line class="fil0 str0" x1="109.86" y1="121.92" x2="110.12" y2= "121.53" />
   <line class="fil0 str0" x1="110.12" y1="121.53" x2="110.38" y2= "121.15" />
   <line class="fil0 str0" x1="110.38" y1="121.15" x2="110.65" y2= "120.76" />
   <line class="fil0 str0" x1="110.65" y1="120.76" x2="110.92" y2= "120.38" />
   <line class="fil0 str0" x1="110.92" y1="120.38" x2="111.19" y2= "119.99" />
   <line class="fil0 str0" x1="111.19" y1="119.99" x2="111.47" y2= "119.6" />
   <line class="fil0 str0" x1="111.47" y1="119.6" x2="111.75" y2= "119.22" />
   <line class="fil0 str0" x1="111.75" y1="119.22" x2="112.04" y2= "118.83" />
   <line class="fil0 str0" x1="112.04" y1="118.83" x2="112.33" y2= "118.45" />
   <line class="fil0 str0" x1="112.33" y1="118.45" x2="112.62" y2= "118.06" />
   <line class="fil0 str0" x1="112.62" y1="118.06" x2="112.92" y2= "117.68" />
   <line class="fil0 str0" x1="112.92" y1="117.68" x2="113.22" y2= "117.29" />
   <line class="fil0 str0" x1="113.22" y1="117.29" x2="113.53" y2= "116.91" />
   <line class="fil0 str0" x1="113.53" y1="116.91" x2="113.84" y2= "116.53" />
   <line class="fil0 str0" x1="113.84" y1="116.53" x2="114.15" y2= "116.15" />
   <line class="fil0 str0" x1="114.15" y1="116.15" x2="114.46" y2= "115.76" />
   <line class="fil0 str0" x1="114.46" y1="115.76" x2="114.78" y2= "115.38" />
   <line class="fil0 str0" x1="114.78" y1="115.38" x2="115.11" y2= "115" />
   <line class="fil0 str0" x1="115.11" y1="115" x2="115.43" y2= "114.63" />
   <line class="fil0 str0" x1="115.43" y1="114.63" x2="115.76" y2= "114.25" />
   <line class="fil0 str0" x1="115.76" y1="114.25" x2="116.09" y2= "113.87" />
   <line class="fil0 str0" x1="116.09" y1="113.87" x2="116.43" y2= "113.5" />
   <line class="fil0 str0" x1="116.43" y1="113.5" x2="116.77" y2= "113.12" />
   <line class="fil0 str0" x1="116.77" y1="113.12" x2="117.11" y2= "112.75" />
   <line class="fil0 str0" x1="117.11" y1="112.75" x2="117.45" y2= "112.38" />
   <line class="fil0 str0" x1="117.45" y1="112.38" x2="117.8" y2= "112.01" />
   <line class="fil0 str0" x1="117.8" y1="112.01" x2="118.15" y2= "111.64" />
   <line class="fil0 str0" x1="118.15" y1="111.64" x2="118.5" y2= "111.28" />
   <line class="fil0 str0" x1="118.5" y1="111.28" x2="118.86" y2= "110.91" />
   <line class="fil0 str0" x1="118.86" y1="110.91" x2="119.22" y2= "110.55" />
   <line class="fil0 str0" x1="119.22" y1="110.55" x2="119.58" y2= "110.19" />
   <line class="fil0 str0" x1="119.58" y1="110.19" x2="119.94" y2= "109.83" />
   <line class="fil0 str0" x1="119.94" y1="109.83" x2="120.31" y2= "109.48" />
   <line class="fil0 str0" x1="120.31" y1="109.48" x2="120.68" y2= "109.12" />
   <line class="fil0 str0" x1="120.68" y1="109.12" x2="121.05" y2= "108.77" />
   <line class="fil0 str0" x1="121.05" y1="108.77" x2="121.42" y2= "108.42" />
   <line class="fil0 str0" x1="121.42" y1="108.42" x2="121.8" y2= "108.07" />
   <line class="fil0 str0" x1="121.8" y1="108.07" x2="122.17" y2= "107.72" />
   <line class="fil0 str0" x1="122.17" y1="107.72" x2="122.55" y2= "107.38" />
   <line class="fil0 str0" x1="103.13" y1="79.23" x2="102.75" y2= "79.52" />
   <line class="fil0 str0" x1="122.55" y1="107.38" x2="122.93" y2= "107.04" />
   <line class="fil0 str0" x1="122.93" y1="107.04" x2="123.32" y2= "106.7" />
   <line class="fil0 str0" x1="123.32" y1="106.7" x2="123.7" y2= "106.37" />
   <line class="fil0 str0" x1="123.7" y1="106.37" x2="124.09" y2= "106.03" />
   <line class="fil0 str0" x1="124.09" y1="106.03" x2="124.48" y2= "105.7" />
   <line class="fil0 str0" x1="124.48" y1="105.7" x2="124.87" y2= "105.38" />
   <line class="fil0 str0" x1="124.87" y1="105.38" x2="125.26" y2= "105.05" />
   <line class="fil0 str0" x1="125.26" y1="105.05" x2="125.65" y2= "104.73" />
   <line class="fil0 str0" x1="125.65" y1="104.73" x2="126.04" y2= "104.41" />
   <line class="fil0 str0" x1="126.04" y1="104.41" x2="126.44" y2= "104.1" />
   <line class="fil0 str0" x1="126.44" y1="104.1" x2="126.84" y2= "103.78" />
   <line class="fil0 str0" x1="103.51" y1="78.94" x2="103.13" y2= "79.23" />
   <line class="fil0 str0" x1="126.84" y1="103.78" x2="127.23" y2= "103.47" />
   <line class="fil0 str0" x1="127.23" y1="103.47" x2="127.63" y2= "103.17" />
   <line class="fil0 str0" x1="127.63" y1="103.17" x2="128.03" y2= "102.87" />
   <line class="fil0 str0" x1="128.03" y1="102.87" x2="128.43" y2= "102.57" />
   <line class="fil0 str0" x1="128.43" y1="102.57" x2="128.83" y2= "102.27" />
   <line class="fil0 str0" x1="128.83" y1="102.27" x2="129.23" y2= "101.98" />
   <line class="fil0 str0" x1="129.23" y1="101.98" x2="129.64" y2= "101.69" />
   <line class="fil0 str0" x1="129.64" y1="101.69" x2="130.04" y2= "101.4" />
   <line class="fil0 str0" x1="103.89" y1="78.66" x2="103.51" y2= "78.94" />
   <line class="fil0 str0" x1="104.27" y1="78.38" x2="103.89" y2= "78.66" />
   <line class="fil0 str0" x1="104.65" y1="78.1" x2="104.27" y2= "78.38" />
   <line class="fil0 str0" x1="105.03" y1="77.83" x2="104.65" y2= "78.1" />
   <line class="fil0 str0" x1="105.41" y1="77.56" x2="105.03" y2= "77.83" />
   <line class="fil0 str0" x1="105.8" y1="77.29" x2="105.41" y2= "77.56" />
   <line class="fil0 str0" x1="106.19" y1="77.03" x2="105.8" y2= "77.29" />
   <line class="fil0 str0" x1="106.57" y1="76.77" x2="106.19" y2= "77.03" />
   <line class="fil0 str0" x1="106.96" y1="76.51" x2="106.57" y2= "76.77" />
   <line class="fil0 str0" x1="107.35" y1="76.26" x2="106.96" y2= "76.51" />
   <line class="fil0 str0" x1="107.74" y1="76.01" x2="107.35" y2= "76.26" />
   <line class="fil0 str0" x1="108.12" y1="75.77" x2="107.74" y2= "76.01" />
   <line class="fil0 str0" x1="108.51" y1="75.52" x2="108.12" y2= "75.77" />
   <line class="fil0 str0" x1="108.9" y1="75.29" x2="108.51" y2= "75.52" />
   <line class="fil0 str0" x1="109.29" y1="75.06" x2="108.9" y2= "75.29" />
   <line class="fil0 str0" x1="109.68" y1="74.83" x2="109.29" y2= "75.06" />
   <line class="fil0 str0" x1="110.07" y1="74.6" x2="109.68" y2= "74.83" />
   <line class="fil0 str0" x1="110.46" y1="74.38" x2="110.07" y2= "74.6" />
   <line class="fil0 str0" x1="110.85" y1="74.17" x2="110.46" y2= "74.38" />
   <line class="fil0 str0" x1="111.24" y1="73.95" x2="110.85" y2= "74.17" />
   <line class="fil0 str0" x1="111.63" y1="73.75" x2="111.24" y2= "73.95" />
   <line class="fil0 str0" x1="112.02" y1="73.54" x2="111.63" y2= "73.75" />
   <line class="fil0 str0" x1="112.41" y1="73.34" x2="112.02" y2= "73.54" />
   <line class="fil0 str0" x1="112.8" y1="73.15" x2="112.41" y2= "73.34" />
   <line class="fil0 str0" x1="113.19" y1="72.96" x2="112.8" y2= "73.15" />
   <line class="fil0 str0" x1="113.58" y1="72.77" x2="113.19" y2= "72.96" />
   <line class="fil0 str0" x1="113.97" y1="72.59" x2="113.58" y2= "72.77" />
   <line class="fil0 str0" x1="114.35" y1="72.41" x2="113.97" y2= "72.59" />
   <line class="fil0 str0" x1="114.74" y1="72.24" x2="114.35" y2= "72.41" />
   <line class="fil0 str0" x1="147.34" y1="119.45" x2="134.37" y2= "122.47" />
   <line class="fil0 str0" x1="115.12" y1="72.07" x2="114.74" y2= "72.24" />
   <line class="fil0 str0" x1="115.51" y1="71.91" x2="115.12" y2= "72.07" />
   <line class="fil0 str0" x1="115.89" y1="71.75" x2="115.51" y2= "71.91" />
   <line class="fil0 str0" x1="116.27" y1="71.59" x2="115.89" y2= "71.75" />
   <line class="fil0 str0" x1="116.65" y1="71.44" x2="116.27" y2= "71.59" />
   <line class="fil0 str0" x1="117.03" y1="71.29" x2="116.65" y2= "71.44" />
   <line class="fil0 str0" x1="117.41" y1="71.15" x2="117.03" y2= "71.29" />
   <line class="fil0 str0" x1="117.79" y1="71.02" x2="117.41" y2= "71.15" />
   <line class="fil0 str0" x1="118.17" y1="70.89" x2="117.79" y2= "71.02" />
   <line class="fil0 str0" x1="118.54" y1="70.76" x2="118.17" y2= "70.89" />
   <line class="fil0 str0" x1="118.91" y1="70.63" x2="118.54" y2= "70.76" />
   <line class="fil0 str0" x1="119.29" y1="70.52" x2="118.91" y2= "70.63" />
   <line class="fil0 str0" x1="119.66" y1="70.4" x2="119.29" y2= "70.52" />
   <line class="fil0 str0" x1="120.02" y1="70.3" x2="119.66" y2= "70.4" />
   <line class="fil0 str0" x1="120.39" y1="70.19" x2="120.02" y2= "70.3" />
   <line class="fil0 str0" x1="120.76" y1="70.09" x2="120.39" y2= "70.19" />
   <line class="fil0 str0" x1="121.12" y1="70" x2="120.76" y2= "70.09" />
   <line class="fil0 str0" x1="121.48" y1="69.91" x2="121.12" y2= "70" />
   <line class="fil0 str0" x1="121.84" y1="69.82" x2="121.48" y2= "69.91" />
   <line class="fil0 str0" x1="122.2" y1="69.74" x2="121.84" y2= "69.82" />
   <line class="fil0 str0" x1="122.55" y1="69.67" x2="122.2" y2= "69.74" />
   <line class="fil0 str0" x1="122.9" y1="69.6" x2="122.55" y2= "69.67" />
   <line class="fil0 str0" x1="123.25" y1="69.53" x2="122.9" y2= "69.6" />
   <line class="fil0 str0" x1="123.6" y1="69.47" x2="123.25" y2= "69.53" />
   <line class="fil0 str0" x1="123.95" y1="69.41" x2="123.6" y2= "69.47" />
   <line class="fil0 str0" x1="124.29" y1="69.36" x2="123.95" y2= "69.41" />
   <line class="fil0 str0" x1="124.63" y1="69.31" x2="124.29" y2= "69.36" />
   <line class="fil0 str0" x1="124.97" y1="69.27" x2="124.63" y2= "69.31" />
   <line class="fil0 str0" x1="125.31" y1="69.23" x2="124.97" y2= "69.27" />
   <line class="fil0 str0" x1="125.31" y1="69.23" x2="138.52" y2= "67.85" />
   <line class="fil0 str0" x1="130.04" y1="101.4" x2="130.44" y2= "101.12" />
   <line class="fil0 str0" x1="130.44" y1="101.12" x2="130.85" y2= "100.84" />
   <line class="fil0 str0" x1="130.85" y1="100.84" x2="131.25" y2= "100.57" />
   <line class="fil0 str0" x1="131.25" y1="100.57" x2="131.66" y2= "100.3" />
   <line class="fil0 str0" x1="131.66" y1="100.3" x2="132.06" y2= "100.03" />
   <line class="fil0 str0" x1="132.06" y1="100.03" x2="132.46" y2= "99.77" />
   <line class="fil0 str0" x1="132.46" y1="99.77" x2="132.87" y2= "99.51" />
   <line class="fil0 str0" x1="132.87" y1="99.51" x2="133.27" y2= "99.25" />
   <line class="fil0 str0" x1="133.27" y1="99.25" x2="133.68" y2= "99" />
   <line class="fil0 str0" x1="133.68" y1="99" x2="134.08" y2= "98.75" />
   <line class="fil0 str0" x1="134.08" y1="98.75" x2="134.49" y2= "98.51" />
   <line class="fil0 str0" x1="134.49" y1="98.51" x2="134.89" y2= "98.27" />
   <line class="fil0 str0" x1="134.89" y1="98.27" x2="135.3" y2= "98.04" />
   <line class="fil0 str0" x1="135.3" y1="98.04" x2="135.7" y2= "97.8" />
   <line class="fil0 str0" x1="135.7" y1="97.8" x2="136.1" y2= "97.58" />
   <line class="fil0 str0" x1="136.1" y1="97.58" x2="136.5" y2= "97.36" />
   <line class="fil0 str0" x1="136.5" y1="97.36" x2="136.9" y2= "97.14" />
   <line class="fil0 str0" x1="136.9" y1="97.14" x2="137.3" y2= "96.92" />
   <line class="fil0 str0" x1="137.3" y1="96.92" x2="137.7" y2= "96.71" />
   <line class="fil0 str0" x1="137.7" y1="96.71" x2="138.1" y2= "96.51" />
   <line class="fil0 str0" x1="138.1" y1="96.51" x2="138.5" y2= "96.31" />
   <line class="fil0 str0" x1="138.5" y1="96.31" x2="138.9" y2= "96.11" />
   <line class="fil0 str0" x1="138.9" y1="96.11" x2="139.29" y2= "95.92" />
   <line class="fil0 str0" x1="139.29" y1="95.92" x2="139.69" y2= "95.73" />
   <line class="fil0 str0" x1="139.69" y1="95.73" x2="140.08" y2= "95.55" />
   <line class="fil0 str0" x1="140.08" y1="95.55" x2="140.47" y2= "95.37" />
   <line class="fil0 str0" x1="140.47" y1="95.37" x2="140.86" y2= "95.2" />
   <line class="fil0 str0" x1="140.86" y1="95.2" x2="141.25" y2= "95.03" />
   <line class="fil0 str0" x1="141.25" y1="95.03" x2="141.63" y2= "94.87" />
   <line class="fil0 str0" x1="141.63" y1="94.87" x2="142.02" y2= "94.71" />
   <line class="fil0 str0" x1="142.02" y1="94.71" x2="142.4" y2= "94.55" />
   <line class="fil0 str0" x1="142.4" y1="94.55" x2="142.78" y2= "94.4" />
   <line class="fil0 str0" x1="142.78" y1="94.4" x2="143.16" y2= "94.26" />
   <line class="fil0 str0" x1="143.16" y1="94.26" x2="143.54" y2= "94.12" />
   <line class="fil0 str0" x1="143.54" y1="94.12" x2="143.92" y2= "93.98" />
   <line class="fil0 str0" x1="143.92" y1="93.98" x2="144.29" y2= "93.85" />
   <line class="fil0 str0" x1="144.29" y1="93.85" x2="144.66" y2= "93.72" />
   <line class="fil0 str0" x1="144.66" y1="93.72" x2="145.03" y2= "93.6" />
   <line class="fil0 str0" x1="145.03" y1="93.6" x2="145.4" y2= "93.48" />
   <line class="fil0 str0" x1="145.4" y1="93.48" x2="145.77" y2= "93.37" />
   <line class="fil0 str0" x1="145.77" y1="93.37" x2="146.13" y2= "93.27" />
   <line class="fil0 str0" x1="147.34" y1="119.45" x2="162.8" y2= "90.25" />
   <line class="fil0 str0" x1="146.13" y1="93.27" x2="146.49" y2= "93.16" />
   <line class="fil0 str0" x1="146.49" y1="93.16" x2="146.85" y2= "93.07" />
   <line class="fil0 str0" x1="147.2" y1="92.97" x2="146.85" y2= "93.07" />
   <line class="fil0 str0" x1="147.55" y1="92.89" x2="147.2" y2= "92.97" />
   <line class="fil0 str0" x1="147.9" y1="92.8" x2="147.55" y2= "92.89" />
   <line class="fil0 str0" x1="148.25" y1="92.72" x2="147.9" y2= "92.8" />
   <line class="fil0 str0" x1="148.6" y1="92.65" x2="148.25" y2= "92.72" />
   <line class="fil0 str0" x1="148.94" y1="92.58" x2="148.6" y2= "92.65" />
   <line class="fil0 str0" x1="149.28" y1="92.52" x2="148.94" y2= "92.58" />
   <line class="fil0 str0" x1="149.61" y1="92.46" x2="149.28" y2= "92.52" />
   <line class="fil0 str0" x1="149.61" y1="92.46" x2="162.8" y2= "90.25" />
   <line class="fil0 str0" x1="162.8" y1="90.25" x2="138.52" y2= "67.85" />
   <g id="Section_x0020_Element_2">
    <line class="fil0 str0" x1="142.75" y1="67.41" x2="166.44" y2= "64.93" />
    <line class="fil0 str0" x1="141.32" y1="70.43" x2="142.75" y2= "67.41" />
    <line class="fil0 str0" x1="151.49" y1="118.49" x2="149.12" y2= "116.09" />
    <line class="fil0 str0" x1="174.73" y1="113.08" x2="151.49" y2= "118.49" />
    <line class="fil0 str0" x1="174.73" y1="113.08" x2="190.5" y2= "85.6" />
    <line class="fil0 str0" x1="167.01" y1="89.54" x2="190.5" y2= "85.6" />
    <line class="fil0 str0" x1="167.01" y1="89.54" x2="151.49" y2= "118.49" />
    <line class="fil0 str0" x1="142.75" y1="67.41" x2="167.01" y2= "89.54" />
    <line class="fil0 str0" x1="190.5" y1="85.6" x2="166.44" y2= "64.93" />
   </g>
   <polygon class="fil1 str1" points="122.93,107.04 123.32,106.7 123.7,106.37 124.09,106.03 124.48,105.7 124.87,105.38 125.26,105.05 125.65,104.73 126.04,104.41 126.44,104.1 126.84,103.78 127.23,103.47 127.63,103.17 128.03,102.87 128.43,102.57 128.83,102.27 129.23,101.98 129.64,101.69 130.04,101.4 130.44,101.12 130.85,100.84 131.25,100.57 131.66,100.3 132.06,100.03 132.46,99.77 132.87,99.51 133.27,99.25 133.68,99 134.08,98.75 134.49,98.51 134.89,98.27 135.3,98.04 135.7,97.81 136.1,97.58 136.5,97.36 136.9,97.14 137.3,96.92 137.7,96.71 138.1,96.51 138.5,96.31 138.9,96.11 139.29,95.92 139.69,95.73 140.08,95.55 140.47,95.37 140.86,95.2 141.25,95.03 141.63,94.87 142.02,94.71 142.4,94.55 142.78,94.4 143.16,94.26 143.54,94.12 143.92,93.98 144.29,93.85 144.66,93.72 145.03,93.6 145.4,93.48 145.77,93.37 146.13,93.27 146.49,93.16 146.85,93.07 147.2,92.97 147.55,92.89 147.9,92.8 148.25,92.72 148.6,92.65 148.94,92.58 149.28,92.52 149.61,92.46 162.8,90.25 141.32,70.43 138.52,67.85 125.31,69.23 124.97,69.27 124.63,69.31 124.29,69.36 123.95,69.41 123.6,69.47 123.25,69.53 122.9,69.6 122.55,69.67 122.2,69.74 121.84,69.82 121.48,69.91 121.12,70 120.76,70.09 120.39,70.19 120.02,70.3 119.66,70.4 119.29,70.52 118.91,70.63 118.54,70.76 118.17,70.89 117.79,71.02 117.41,71.15 117.03,71.29 116.65,71.44 116.27,71.59 115.89,71.75 115.51,71.91 115.12,72.07 114.74,72.24 114.35,72.41 113.96,72.59 113.58,72.77 113.19,72.96 112.8,73.15 112.41,73.34 112.02,73.54 111.63,73.75 111.24,73.95 110.85,74.17 110.46,74.38 110.07,74.6 109.68,74.83 109.29,75.06 108.9,75.29 108.51,75.52 108.12,75.77 107.74,76.01 107.35,76.26 106.96,76.51 106.57,76.77 106.19,77.03 105.8,77.29 105.41,77.56 105.03,77.83 104.65,78.1 104.27,78.38 103.89,78.66 103.51,78.94 103.13,79.23 102.75,79.52 102.38,79.82 102,80.11 101.63,80.41 101.26,80.72 100.89,81.02 100.52,81.33 100.16,81.65 99.79,81.96 99.43,82.28 99.07,82.6 98.71,82.92 98.36,83.25 98.01,83.58 97.66,83.91 97.31,84.24 96.96,84.58 96.62,84.92 96.28,85.26 95.94,85.6 95.6,85.94 95.27,86.29 94.94,86.64 94.62,86.99 94.29,87.34 93.97,87.69 93.65,88.05 93.34,88.41 93.03,88.77 92.72,89.13 92.41,89.49 92.11,89.85 91.81,90.22 91.52,90.58 91.23,90.95 90.94,91.32 90.66,91.68 90.38,92.05 90.1,92.42 89.83,92.8 89.56,93.17 89.29,93.54 89.03,93.91 88.78,94.29 88.52,94.66 88.27,95.04 88.03,95.41 87.79,95.79 87.55,96.16 87.32,96.54 87.09,96.91 86.86,97.29 86.64,97.66 86.43,98.04 86.22,98.41 86.01,98.79 85.81,99.16 85.61,99.54 85.42,99.91 85.23,100.28 85.04,100.65 84.86,101.02 84.69,101.39 84.52,101.76 84.35,102.13 84.19,102.5 84.04,102.87 83.88,103.23 83.74,103.59 75.89,123.3 71.35,134.71 70.33,136.85 69.13,138.66 67.76,140.11 66.26,141.18 64.65,141.85 62.98,142.12 61.25,142 59.51,141.49 57.78,140.6 56.1,139.37 54.48,137.81 52.96,135.95 51.55,133.83 50.27,131.48 49.15,128.95 48.2,126.26 13.27,15.13 1.5,30.64 33.5,136.01 35.67,142.38 38.23,148.46 41.16,154.17 44.42,159.43 47.99,164.15 51.82,168.25 55.87,171.65 60.08,174.26 64.41,176.03 68.78,176.87 73.11,176.72 77.34,175.56 81.37,173.34 85.12,170.06 88.49,165.74 91.4,160.44 105.81,129.11 105.98,128.74 106.16,128.37 106.34,128 106.52,127.63 106.71,127.25 106.91,126.88 107.11,126.5 107.31,126.13 107.52,125.75 107.74,125.37 107.96,124.99 108.18,124.61 108.41,124.22 108.64,123.84 108.87,123.46 109.11,123.07 109.36,122.69 109.61,122.3 109.86,121.92 110.12,121.53 110.38,121.15 110.65,120.76 110.92,120.38 111.19,119.99 111.47,119.6 111.75,119.22 112.04,118.83 112.33,118.45 112.62,118.06 112.92,117.68 113.22,117.29 113.53,116.91 113.84,116.53 114.15,116.15 114.46,115.76 114.78,115.38 115.11,115 115.43,114.63 115.76,114.25 116.09,113.87 116.43,113.5 116.77,113.12 117.11,112.75 117.45,112.38 117.8,112.01 118.15,111.64 118.5,111.28 118.86,110.91 119.22,110.55 119.58,110.19 119.94,109.83 120.31,109.48 120.68,109.12 121.05,108.77 121.42,108.42 121.8,108.07 122.17,107.72 122.55,107.38 "/>
   <polygon class="fil1 str1" points="142.75,67.41 167.01,89.54 190.5,85.6 166.44,64.93 "/>
   <polygon class="fil2 str1" points="136.9,97.14 136.5,97.36 136.1,97.58 135.7,97.81 135.3,98.04 134.89,98.27 134.49,98.51 134.08,98.75 133.68,99 133.27,99.25 132.87,99.51 132.46,99.77 132.06,100.03 131.66,100.3 131.25,100.57 130.85,100.84 130.44,101.12 130.04,101.4 129.64,101.69 129.23,101.98 128.83,102.27 128.43,102.57 128.03,102.87 127.63,103.17 127.23,103.47 126.84,103.78 126.44,104.1 126.04,104.41 125.65,104.73 125.26,105.05 124.87,105.38 124.48,105.7 124.09,106.03 123.7,106.37 123.32,106.7 122.93,107.04 122.55,107.38 122.17,107.72 121.8,108.07 121.42,108.42 121.05,108.77 120.68,109.12 120.31,109.48 119.94,109.83 119.58,110.19 119.22,110.55 118.86,110.91 118.5,111.28 118.15,111.64 117.8,112.01 117.45,112.38 117.11,112.75 116.77,113.12 116.43,113.5 116.09,113.87 115.76,114.25 115.43,114.63 115.11,115 114.78,115.38 114.46,115.76 114.15,116.15 113.84,116.53 113.53,116.91 113.22,117.29 112.92,117.68 112.62,118.06 112.33,118.45 112.04,118.83 111.75,119.22 111.47,119.6 111.19,119.99 110.92,120.38 110.65,120.76 110.38,121.15 110.12,121.53 109.86,121.92 109.61,122.3 109.36,122.69 109.11,123.07 108.87,123.46 108.64,123.84 108.41,124.22 108.18,124.61 107.96,124.99 107.74,125.37 107.52,125.75 107.31,126.13 107.11,126.5 106.91,126.88 106.71,127.25 106.52,127.63 106.34,128 106.16,128.37 105.98,128.74 105.81,129.11 91.4,160.44 88.49,165.74 85.12,170.06 81.37,173.34 77.34,175.56 104.53,166.98 108.72,164.77 112.63,161.56 116.15,157.39 119.22,152.31 134.37,122.47 147.34,119.45 149.12,116.09 162.8,90.25 149.61,92.46 149.28,92.52 148.94,92.58 148.6,92.65 148.25,92.72 147.9,92.8 147.55,92.89 147.2,92.97 146.85,93.07 146.49,93.16 146.13,93.27 145.77,93.37 145.4,93.48 145.03,93.6 144.66,93.72 144.29,93.85 143.92,93.98 143.54,94.12 143.16,94.26 142.78,94.4 142.4,94.55 142.02,94.71 141.63,94.87 141.25,95.03 140.86,95.2 140.47,95.37 140.08,95.55 139.69,95.73 139.29,95.92 138.9,96.11 138.5,96.31 138.1,96.51 137.7,96.71 137.3,96.92 "/>
   <polygon class="fil2 str1" points="167.01,89.54 151.49,118.49 174.73,113.08 190.5,85.6 "/>
   <polygon class="fil2 str1" points="151.49,118.49 167.01,89.54 142.75,67.41 141.32,70.43 162.8,90.25 149.12,116.09 "/>
   <polygon class="fil2 str1" points="74.98,120.88 40.06,15.56 13.27,15.13 48.2,126.26 49.15,128.95 50.27,131.48 51.55,133.83 52.96,135.95 54.48,137.81 56.1,139.37 57.78,140.6 59.51,141.49 61.25,142 62.98,142.12 64.65,141.85 66.26,141.18 67.76,140.11 69.13,138.66 70.33,136.85 71.35,134.71 75.89,123.3 "/>
  </g>
 </g>
</svg>
