<?xml version="1.0" encoding="UTF-8"?>
<!DOCTYPE svg PUBLIC "-//W3C//DTD SVG 1.1//EN" "http://www.w3.org/Graphics/SVG/1.1/DTD/svg11.dtd">
<!-- Creator: CorelDRAW 2020 (64-Bit) -->
<svg xmlns="http://www.w3.org/2000/svg" xml:space="preserve" width="512px" height="512px" version="1.1" style="shape-rendering:geometricPrecision; text-rendering:geometricPrecision; image-rendering:optimizeQuality; fill-rule:evenodd; clip-rule:evenodd"
viewBox="0 0 512 512"
 xmlns:xlink="http://www.w3.org/1999/xlink"
 xmlns:xodm="http://www.corel.com/coreldraw/odm/2003">
 <defs>
  <style type="text/css">
   <![CDATA[
    .str1 {stroke:#222222;stroke-width:3;stroke-miterlimit:2.61313}
    .str0 {stroke:#222222;stroke-width:3;stroke-linejoin:bevel;stroke-miterlimit:2.61313}
    .fil0 {fill:none}
    .fil2 {fill:#FEFEFE}
    .fil1 {fill:#0EA5E9}
   ]]>
  </style>
 </defs>
 <g id="Layer_x0020_1">
  <metadata id="CorelCorpID_0Corel-Layer"/>
  <g id="_1644947702992">
   <line class="fil0 str0" x1="96.39" y1="378.7" x2="103.17" y2= "394.79" />
   <line class="fil0 str0" x1="110.91" y1="409.89" x2="103.17" y2= "394.79" />
   <line class="fil0 str0" x1="110.91" y1="409.89" x2="119.55" y2= "423.8" />
   <line class="fil0 str0" x1="96.39" y1="378.7" x2="90.65" y2= "361.84" />
   <line class="fil0 str0" x1="119.55" y1="423.8" x2="128.98" y2= "436.29" />
   <line class="fil0 str0" x1="128.98" y1="436.29" x2="139.11" y2= "447.13" />
   <line class="fil0 str0" x1="149.83" y1="456.12" x2="139.11" y2= "447.13" />
   <line class="fil0 str0" x1="149.83" y1="456.12" x2="160.98" y2= "463.05" />
   <line class="fil0 str0" x1="160.98" y1="463.05" x2="172.42" y2= "467.71" />
   <line class="fil0 str0" x1="172.42" y1="467.71" x2="183.98" y2= "469.93" />
   <line class="fil0 str0" x1="183.98" y1="469.93" x2="195.46" y2= "469.55" />
   <line class="fil0 str0" x1="195.46" y1="469.55" x2="206.64" y2= "466.46" />
   <line class="fil0 str0" x1="206.64" y1="466.46" x2="217.3" y2= "460.59" />
   <line class="fil0 str0" x1="217.3" y1="460.59" x2="227.21" y2= "451.92" />
   <line class="fil0 str0" x1="227.21" y1="451.92" x2="236.14" y2= "440.5" />
   <line class="fil0 str0" x1="135.03" y1="349.87" x2="138.41" y2= "356.08" />
   <line class="fil0 str0" x1="138.41" y1="356.08" x2="142.13" y2= "361.69" />
   <line class="fil0 str0" x1="146.17" y1="366.6" x2="142.13" y2= "361.69" />
   <line class="fil0 str0" x1="154.9" y1="373.99" x2="150.44" y2= "370.73" />
   <line class="fil0 str0" x1="150.44" y1="370.73" x2="146.17" y2= "366.6" />
   <line class="fil0 str0" x1="159.46" y1="376.33" x2="154.9" y2= "373.99" />
   <line class="fil0 str0" x1="159.46" y1="376.33" x2="164.07" y2= "377.68" />
   <line class="fil0 str0" x1="164.07" y1="377.68" x2="168.63" y2= "378.01" />
   <line class="fil0 str0" x1="168.63" y1="378.01" x2="173.08" y2= "377.29" />
   <line class="fil0 str0" x1="173.08" y1="377.29" x2="177.32" y2= "375.51" />
   <line class="fil0 str0" x1="177.32" y1="375.51" x2="181.29" y2= "372.69" />
   <line class="fil0 str0" x1="90.65" y1="361.84" x2="6" y2= "83.1" />
   <line class="fil0 str0" x1="6" y1="83.1" x2="37.14" y2= "42.07" />
   <line class="fil0 str0" x1="129.54" y1="336.04" x2="37.14" y2= "42.07" />
   <line class="fil0 str0" x1="132.07" y1="343.15" x2="129.54" y2= "336.04" />
   <line class="fil0 str0" x1="132.07" y1="343.15" x2="135.03" y2= "349.87" />
   <line class="fil0 str0" x1="181.29" y1="372.69" x2="184.9" y2= "368.86" />
   <line class="fil0 str0" x1="184.9" y1="368.86" x2="188.09" y2= "364.07" />
   <line class="fil0 str0" x1="188.09" y1="364.07" x2="190.78" y2= "358.39" />
   <line class="fil0 str0" x1="223.56" y1="276.09" x2="190.78" y2= "358.39" />
   <line class="fil0 str0" x1="223.56" y1="276.09" x2="223.94" y2= "275.13" />
   <line class="fil0 str0" x1="223.94" y1="275.13" x2="224.35" y2= "274.16" />
   <line class="fil0 str0" x1="224.35" y1="274.16" x2="224.76" y2= "273.19" />
   <line class="fil0 str0" x1="224.76" y1="273.19" x2="225.19" y2= "272.22" />
   <line class="fil0 str0" x1="278.56" y1="443.79" x2="206.64" y2= "466.46" />
   <line class="fil0 str0" x1="108.01" y1="43.2" x2="37.14" y2= "42.07" />
   <line class="fil0 str0" x1="225.19" y1="272.22" x2="225.63" y2= "271.24" />
   <line class="fil0 str0" x1="225.63" y1="271.24" x2="226.08" y2= "270.27" />
   <line class="fil0 str0" x1="226.08" y1="270.27" x2="226.54" y2= "269.29" />
   <line class="fil0 str0" x1="226.54" y1="269.29" x2="227.02" y2= "268.31" />
   <line class="fil0 str0" x1="227.5" y1="267.32" x2="227.02" y2= "268.31" />
   <line class="fil0 str0" x1="278.56" y1="443.79" x2="289.65" y2= "437.92" />
   <line class="fil0 str0" x1="200.39" y1="321.83" x2="108.01" y2= "43.2" />
   <line class="fil0 str0" x1="202.79" y1="328.22" x2="200.39" y2= "321.83" />
   <line class="fil0 str0" x1="228" y1="266.34" x2="227.5" y2= "267.32" />
   <line class="fil0 str0" x1="228.51" y1="265.35" x2="228" y2= "266.34" />
   <line class="fil0 str0" x1="229.04" y1="264.36" x2="228.51" y2= "265.35" />
   <line class="fil0 str0" x1="229.57" y1="263.37" x2="229.04" y2= "264.36" />
   <line class="fil0 str0" x1="230.12" y1="262.38" x2="229.57" y2= "263.37" />
   <line class="fil0 str0" x1="230.68" y1="261.39" x2="230.12" y2= "262.38" />
   <line class="fil0 str0" x1="231.25" y1="260.4" x2="230.68" y2= "261.39" />
   <line class="fil0 str0" x1="231.83" y1="259.41" x2="231.25" y2= "260.4" />
   <line class="fil0 str0" x1="232.42" y1="258.41" x2="231.83" y2= "259.41" />
   <line class="fil0 str0" x1="233.03" y1="257.42" x2="232.42" y2= "258.41" />
   <line class="fil0 str0" x1="233.64" y1="256.43" x2="233.03" y2= "257.42" />
   <line class="fil0 str0" x1="234.27" y1="255.43" x2="233.64" y2= "256.43" />
   <line class="fil0 str0" x1="234.91" y1="254.44" x2="234.27" y2= "255.43" />
   <line class="fil0 str0" x1="235.56" y1="253.45" x2="234.91" y2= "254.44" />
   <line class="fil0 str0" x1="236.22" y1="252.46" x2="235.56" y2= "253.45" />
   <line class="fil0 str0" x1="236.89" y1="251.47" x2="236.22" y2= "252.46" />
   <line class="fil0 str0" x1="237.57" y1="250.48" x2="236.89" y2= "251.47" />
   <line class="fil0 str0" x1="238.26" y1="249.49" x2="237.57" y2= "250.48" />
   <line class="fil0 str0" x1="238.96" y1="248.51" x2="238.26" y2= "249.49" />
   <line class="fil0 str0" x1="239.67" y1="247.52" x2="238.96" y2= "248.51" />
   <line class="fil0 str0" x1="240.39" y1="246.54" x2="239.67" y2= "247.52" />
   <line class="fil0 str0" x1="241.12" y1="245.56" x2="240.39" y2= "246.54" />
   <line class="fil0 str0" x1="241.86" y1="244.58" x2="241.12" y2= "245.56" />
   <line class="fil0 str0" x1="242.62" y1="243.61" x2="241.86" y2= "244.58" />
   <line class="fil0 str0" x1="243.38" y1="242.63" x2="242.62" y2= "243.61" />
   <line class="fil0 str0" x1="244.15" y1="241.66" x2="243.38" y2= "242.63" />
   <line class="fil0 str0" x1="244.93" y1="240.7" x2="244.15" y2= "241.66" />
   <line class="fil0 str0" x1="245.71" y1="239.73" x2="244.93" y2= "240.7" />
   <line class="fil0 str0" x1="246.51" y1="238.77" x2="245.71" y2= "239.73" />
   <line class="fil0 str0" x1="247.32" y1="237.82" x2="246.51" y2= "238.77" />
   <line class="fil0 str0" x1="248.13" y1="236.86" x2="247.32" y2= "237.82" />
   <line class="fil0 str0" x1="248.96" y1="235.91" x2="248.13" y2= "236.86" />
   <line class="fil0 str0" x1="249.79" y1="234.97" x2="248.96" y2= "235.91" />
   <line class="fil0 str0" x1="250.63" y1="234.03" x2="249.79" y2= "234.97" />
   <line class="fil0 str0" x1="251.48" y1="233.09" x2="250.63" y2= "234.03" />
   <line class="fil0 str0" x1="252.34" y1="232.16" x2="251.48" y2= "233.09" />
   <line class="fil0 str0" x1="253.2" y1="231.23" x2="252.34" y2= "232.16" />
   <line class="fil0 str0" x1="254.07" y1="230.31" x2="253.2" y2= "231.23" />
   <line class="fil0 str0" x1="254.95" y1="229.39" x2="254.07" y2= "230.31" />
   <line class="fil0 str0" x1="255.84" y1="228.48" x2="254.95" y2= "229.39" />
   <line class="fil0 str0" x1="256.73" y1="227.58" x2="255.84" y2= "228.48" />
   <line class="fil0 str0" x1="257.63" y1="226.68" x2="256.73" y2= "227.58" />
   <line class="fil0 str0" x1="258.54" y1="225.78" x2="257.63" y2= "226.68" />
   <line class="fil0 str0" x1="289.65" y1="437.92" x2="299.98" y2= "429.44" />
   <line class="fil0 str0" x1="299.98" y1="429.44" x2="309.32" y2= "418.41" />
   <line class="fil0 str0" x1="236.14" y1="440.5" x2="243.84" y2= "426.47" />
   <line class="fil0 str0" x1="281.95" y1="343.59" x2="243.84" y2= "426.47" />
   <line class="fil0 str0" x1="309.32" y1="418.41" x2="317.42" y2= "404.96" />
   <line class="fil0 str0" x1="317.42" y1="404.96" x2="357.51" y2= "326.02" />
   <line class="fil0 str0" x1="259.46" y1="224.89" x2="258.54" y2= "225.78" />
   <line class="fil0 str0" x1="260.38" y1="224.01" x2="259.46" y2= "224.89" />
   <line class="fil0 str0" x1="261.31" y1="223.14" x2="260.38" y2= "224.01" />
   <line class="fil0 str0" x1="262.24" y1="222.27" x2="261.31" y2= "223.14" />
   <line class="fil0 str0" x1="263.18" y1="221.4" x2="262.24" y2= "222.27" />
   <line class="fil0 str0" x1="264.12" y1="220.55" x2="263.18" y2= "221.4" />
   <line class="fil0 str0" x1="265.08" y1="219.7" x2="264.12" y2= "220.55" />
   <line class="fil0 str0" x1="266.03" y1="218.86" x2="265.08" y2= "219.7" />
   <line class="fil0 str0" x1="266.99" y1="218.02" x2="266.03" y2= "218.86" />
   <line class="fil0 str0" x1="267.96" y1="217.2" x2="266.99" y2= "218.02" />
   <line class="fil0 str0" x1="268.93" y1="216.38" x2="267.96" y2= "217.2" />
   <line class="fil0 str0" x1="269.91" y1="215.57" x2="268.93" y2= "216.38" />
   <line class="fil0 str0" x1="270.89" y1="214.77" x2="269.91" y2= "215.57" />
   <line class="fil0 str0" x1="271.88" y1="213.97" x2="270.89" y2= "214.77" />
   <line class="fil0 str0" x1="272.86" y1="213.18" x2="271.88" y2= "213.97" />
   <line class="fil0 str0" x1="273.86" y1="212.4" x2="272.86" y2= "213.18" />
   <line class="fil0 str0" x1="281.95" y1="343.59" x2="282.4" y2= "342.62" />
   <line class="fil0 str0" x1="282.4" y1="342.62" x2="282.87" y2= "341.64" />
   <line class="fil0 str0" x1="282.87" y1="341.64" x2="283.35" y2= "340.66" />
   <line class="fil0 str0" x1="283.35" y1="340.66" x2="283.84" y2= "339.67" />
   <line class="fil0 str0" x1="283.84" y1="339.67" x2="284.35" y2= "338.68" />
   <line class="fil0 str0" x1="284.35" y1="338.68" x2="284.86" y2= "337.69" />
   <line class="fil0 str0" x1="284.86" y1="337.69" x2="285.39" y2= "336.69" />
   <line class="fil0 str0" x1="285.39" y1="336.69" x2="285.93" y2= "335.7" />
   <line class="fil0 str0" x1="285.93" y1="335.7" x2="286.48" y2= "334.69" />
   <line class="fil0 str0" x1="286.48" y1="334.69" x2="287.05" y2= "333.69" />
   <line class="fil0 str0" x1="287.05" y1="333.69" x2="287.63" y2= "332.68" />
   <line class="fil0 str0" x1="287.63" y1="332.68" x2="288.22" y2= "331.68" />
   <line class="fil0 str0" x1="288.22" y1="331.68" x2="288.82" y2= "330.67" />
   <line class="fil0 str0" x1="288.82" y1="330.67" x2="289.43" y2= "329.65" />
   <line class="fil0 str0" x1="289.43" y1="329.65" x2="290.05" y2= "328.64" />
   <line class="fil0 str0" x1="290.05" y1="328.64" x2="290.69" y2= "327.62" />
   <line class="fil0 str0" x1="290.69" y1="327.62" x2="291.34" y2= "326.61" />
   <line class="fil0 str0" x1="291.34" y1="326.61" x2="292" y2= "325.59" />
   <line class="fil0 str0" x1="292" y1="325.59" x2="292.67" y2= "324.57" />
   <line class="fil0 str0" x1="292.67" y1="324.57" x2="293.35" y2= "323.55" />
   <line class="fil0 str0" x1="293.35" y1="323.55" x2="294.04" y2= "322.53" />
   <line class="fil0 str0" x1="294.04" y1="322.53" x2="294.75" y2= "321.51" />
   <line class="fil0 str0" x1="294.75" y1="321.51" x2="295.46" y2= "320.49" />
   <line class="fil0 str0" x1="295.46" y1="320.49" x2="296.19" y2= "319.46" />
   <line class="fil0 str0" x1="296.19" y1="319.46" x2="296.93" y2= "318.44" />
   <line class="fil0 str0" x1="296.93" y1="318.44" x2="297.67" y2= "317.42" />
   <line class="fil0 str0" x1="297.67" y1="317.42" x2="298.43" y2= "316.4" />
   <line class="fil0 str0" x1="298.43" y1="316.4" x2="299.2" y2= "315.38" />
   <line class="fil0 str0" x1="299.2" y1="315.38" x2="299.97" y2= "314.37" />
   <line class="fil0 str0" x1="299.97" y1="314.37" x2="300.76" y2= "313.35" />
   <line class="fil0 str0" x1="300.76" y1="313.35" x2="301.56" y2= "312.33" />
   <line class="fil0 str0" x1="301.56" y1="312.33" x2="302.37" y2= "311.32" />
   <line class="fil0 str0" x1="302.37" y1="311.32" x2="303.18" y2= "310.3" />
   <line class="fil0 str0" x1="303.18" y1="310.3" x2="304.01" y2= "309.29" />
   <line class="fil0 str0" x1="304.01" y1="309.29" x2="304.85" y2= "308.29" />
   <line class="fil0 str0" x1="304.85" y1="308.29" x2="305.69" y2= "307.28" />
   <line class="fil0 str0" x1="305.69" y1="307.28" x2="306.54" y2= "306.27" />
   <line class="fil0 str0" x1="306.54" y1="306.27" x2="307.41" y2= "305.27" />
   <line class="fil0 str0" x1="307.41" y1="305.27" x2="308.28" y2= "304.28" />
   <line class="fil0 str0" x1="308.28" y1="304.28" x2="309.16" y2= "303.28" />
   <line class="fil0 str0" x1="309.16" y1="303.28" x2="310.04" y2= "302.29" />
   <line class="fil0 str0" x1="310.04" y1="302.29" x2="310.94" y2= "301.3" />
   <line class="fil0 str0" x1="310.94" y1="301.3" x2="311.84" y2= "300.32" />
   <line class="fil0 str0" x1="311.84" y1="300.32" x2="312.76" y2= "299.33" />
   <line class="fil0 str0" x1="312.76" y1="299.33" x2="313.67" y2= "298.36" />
   <line class="fil0 str0" x1="313.67" y1="298.36" x2="314.6" y2= "297.38" />
   <line class="fil0 str0" x1="314.6" y1="297.38" x2="315.54" y2= "296.42" />
   <line class="fil0 str0" x1="315.54" y1="296.42" x2="316.48" y2= "295.45" />
   <line class="fil0 str0" x1="316.48" y1="295.45" x2="317.43" y2= "294.49" />
   <line class="fil0 str0" x1="317.43" y1="294.49" x2="318.38" y2= "293.54" />
   <line class="fil0 str0" x1="318.38" y1="293.54" x2="319.34" y2= "292.59" />
   <line class="fil0 str0" x1="319.34" y1="292.59" x2="320.31" y2= "291.65" />
   <line class="fil0 str0" x1="320.31" y1="291.65" x2="321.29" y2= "290.71" />
   <line class="fil0 str0" x1="321.29" y1="290.71" x2="322.27" y2= "289.78" />
   <line class="fil0 str0" x1="322.27" y1="289.78" x2="323.25" y2= "288.85" />
   <line class="fil0 str0" x1="323.25" y1="288.85" x2="324.25" y2= "287.93" />
   <line class="fil0 str0" x1="324.25" y1="287.93" x2="325.24" y2= "287.01" />
   <line class="fil0 str0" x1="325.24" y1="287.01" x2="326.25" y2= "286.11" />
   <line class="fil0 str0" x1="274.86" y1="211.64" x2="273.86" y2= "212.4" />
   <line class="fil0 str0" x1="326.25" y1="286.11" x2="327.25" y2= "285.21" />
   <line class="fil0 str0" x1="327.25" y1="285.21" x2="328.27" y2= "284.31" />
   <line class="fil0 str0" x1="328.27" y1="284.31" x2="329.28" y2= "283.42" />
   <line class="fil0 str0" x1="329.28" y1="283.42" x2="330.31" y2= "282.54" />
   <line class="fil0 str0" x1="330.31" y1="282.54" x2="331.33" y2= "281.67" />
   <line class="fil0 str0" x1="331.33" y1="281.67" x2="332.36" y2= "280.8" />
   <line class="fil0 str0" x1="332.36" y1="280.8" x2="333.4" y2= "279.94" />
   <line class="fil0 str0" x1="333.4" y1="279.94" x2="334.44" y2= "279.09" />
   <line class="fil0 str0" x1="334.44" y1="279.09" x2="335.48" y2= "278.25" />
   <line class="fil0 str0" x1="335.48" y1="278.25" x2="336.52" y2= "277.42" />
   <line class="fil0 str0" x1="336.52" y1="277.42" x2="337.57" y2= "276.59" />
   <line class="fil0 str0" x1="275.86" y1="210.87" x2="274.86" y2= "211.64" />
   <line class="fil0 str0" x1="337.57" y1="276.59" x2="338.62" y2= "275.77" />
   <line class="fil0 str0" x1="338.62" y1="275.77" x2="339.68" y2= "274.96" />
   <line class="fil0 str0" x1="339.68" y1="274.96" x2="340.73" y2= "274.16" />
   <line class="fil0 str0" x1="340.73" y1="274.16" x2="341.79" y2= "273.37" />
   <line class="fil0 str0" x1="341.79" y1="273.37" x2="342.85" y2= "272.59" />
   <line class="fil0 str0" x1="342.85" y1="272.59" x2="343.92" y2= "271.81" />
   <line class="fil0 str0" x1="343.92" y1="271.81" x2="344.98" y2= "271.05" />
   <line class="fil0 str0" x1="344.98" y1="271.05" x2="346.05" y2= "270.29" />
   <line class="fil0 str0" x1="276.86" y1="210.12" x2="275.86" y2= "210.87" />
   <line class="fil0 str0" x1="277.87" y1="209.38" x2="276.86" y2= "210.12" />
   <line class="fil0 str0" x1="278.88" y1="208.64" x2="277.87" y2= "209.38" />
   <line class="fil0 str0" x1="279.89" y1="207.92" x2="278.88" y2= "208.64" />
   <line class="fil0 str0" x1="280.91" y1="207.2" x2="279.89" y2= "207.92" />
   <line class="fil0 str0" x1="281.92" y1="206.5" x2="280.91" y2= "207.2" />
   <line class="fil0 str0" x1="282.94" y1="205.8" x2="281.92" y2= "206.5" />
   <line class="fil0 str0" x1="283.97" y1="205.11" x2="282.94" y2= "205.8" />
   <line class="fil0 str0" x1="284.99" y1="204.44" x2="283.97" y2= "205.11" />
   <line class="fil0 str0" x1="286.02" y1="203.77" x2="284.99" y2= "204.44" />
   <line class="fil0 str0" x1="287.05" y1="203.11" x2="286.02" y2= "203.77" />
   <line class="fil0 str0" x1="288.07" y1="202.47" x2="287.05" y2= "203.11" />
   <line class="fil0 str0" x1="289.1" y1="201.83" x2="288.07" y2= "202.47" />
   <line class="fil0 str0" x1="290.13" y1="201.21" x2="289.1" y2= "201.83" />
   <line class="fil0 str0" x1="291.17" y1="200.59" x2="290.13" y2= "201.21" />
   <line class="fil0 str0" x1="292.2" y1="199.99" x2="291.17" y2= "200.59" />
   <line class="fil0 str0" x1="293.23" y1="199.39" x2="292.2" y2= "199.99" />
   <line class="fil0 str0" x1="294.26" y1="198.81" x2="293.23" y2= "199.39" />
   <line class="fil0 str0" x1="295.29" y1="198.24" x2="294.26" y2= "198.81" />
   <line class="fil0 str0" x1="296.33" y1="197.68" x2="295.29" y2= "198.24" />
   <line class="fil0 str0" x1="297.36" y1="197.13" x2="296.33" y2= "197.68" />
   <line class="fil0 str0" x1="298.39" y1="196.59" x2="297.36" y2= "197.13" />
   <line class="fil0 str0" x1="299.42" y1="196.06" x2="298.39" y2= "196.59" />
   <line class="fil0 str0" x1="300.45" y1="195.55" x2="299.42" y2= "196.06" />
   <line class="fil0 str0" x1="301.47" y1="195.04" x2="300.45" y2= "195.55" />
   <line class="fil0 str0" x1="302.5" y1="194.55" x2="301.47" y2= "195.04" />
   <line class="fil0 str0" x1="303.53" y1="194.07" x2="302.5" y2= "194.55" />
   <line class="fil0 str0" x1="304.55" y1="193.6" x2="303.53" y2= "194.07" />
   <line class="fil0 str0" x1="305.57" y1="193.14" x2="304.55" y2= "193.6" />
   <line class="fil0 str0" x1="391.83" y1="318.04" x2="357.51" y2= "326.02" />
   <line class="fil0 str0" x1="306.59" y1="192.69" x2="305.57" y2= "193.14" />
   <line class="fil0 str0" x1="307.6" y1="192.26" x2="306.59" y2= "192.69" />
   <line class="fil0 str0" x1="308.62" y1="191.84" x2="307.6" y2= "192.26" />
   <line class="fil0 str0" x1="309.63" y1="191.43" x2="308.62" y2= "191.84" />
   <line class="fil0 str0" x1="310.64" y1="191.03" x2="309.63" y2= "191.43" />
   <line class="fil0 str0" x1="311.64" y1="190.64" x2="310.64" y2= "191.03" />
   <line class="fil0 str0" x1="312.65" y1="190.27" x2="311.64" y2= "190.64" />
   <line class="fil0 str0" x1="313.65" y1="189.91" x2="312.65" y2= "190.27" />
   <line class="fil0 str0" x1="314.64" y1="189.56" x2="313.65" y2= "189.91" />
   <line class="fil0 str0" x1="315.63" y1="189.22" x2="314.64" y2= "189.56" />
   <line class="fil0 str0" x1="316.62" y1="188.9" x2="315.63" y2= "189.22" />
   <line class="fil0 str0" x1="317.6" y1="188.58" x2="316.62" y2= "188.9" />
   <line class="fil0 str0" x1="318.58" y1="188.28" x2="317.6" y2= "188.58" />
   <line class="fil0 str0" x1="319.56" y1="188" x2="318.58" y2= "188.28" />
   <line class="fil0 str0" x1="320.53" y1="187.72" x2="319.56" y2= "188" />
   <line class="fil0 str0" x1="321.49" y1="187.46" x2="320.53" y2= "187.72" />
   <line class="fil0 str0" x1="322.45" y1="187.21" x2="321.49" y2= "187.46" />
   <line class="fil0 str0" x1="323.4" y1="186.97" x2="322.45" y2= "187.21" />
   <line class="fil0 str0" x1="324.35" y1="186.75" x2="323.4" y2= "186.97" />
   <line class="fil0 str0" x1="325.3" y1="186.53" x2="324.35" y2= "186.75" />
   <line class="fil0 str0" x1="326.24" y1="186.33" x2="325.3" y2= "186.53" />
   <line class="fil0 str0" x1="327.17" y1="186.15" x2="326.24" y2= "186.33" />
   <line class="fil0 str0" x1="328.1" y1="185.97" x2="327.17" y2= "186.15" />
   <line class="fil0 str0" x1="329.02" y1="185.81" x2="328.1" y2= "185.97" />
   <line class="fil0 str0" x1="329.93" y1="185.66" x2="329.02" y2= "185.81" />
   <line class="fil0 str0" x1="330.84" y1="185.52" x2="329.93" y2= "185.66" />
   <line class="fil0 str0" x1="331.74" y1="185.4" x2="330.84" y2= "185.52" />
   <line class="fil0 str0" x1="332.64" y1="185.29" x2="331.74" y2= "185.4" />
   <line class="fil0 str0" x1="333.53" y1="185.19" x2="332.64" y2= "185.29" />
   <line class="fil0 str0" x1="333.53" y1="185.19" x2="368.5" y2= "181.53" />
   <line class="fil0 str0" x1="346.05" y1="270.29" x2="347.12" y2= "269.55" />
   <line class="fil0 str0" x1="347.12" y1="269.55" x2="348.19" y2= "268.81" />
   <line class="fil0 str0" x1="348.19" y1="268.81" x2="349.25" y2= "268.08" />
   <line class="fil0 str0" x1="349.25" y1="268.08" x2="350.32" y2= "267.37" />
   <line class="fil0 str0" x1="350.32" y1="267.37" x2="351.4" y2= "266.66" />
   <line class="fil0 str0" x1="351.4" y1="266.66" x2="352.47" y2= "265.96" />
   <line class="fil0 str0" x1="352.47" y1="265.96" x2="353.54" y2= "265.28" />
   <line class="fil0 str0" x1="353.54" y1="265.28" x2="354.61" y2= "264.6" />
   <line class="fil0 str0" x1="354.61" y1="264.6" x2="355.68" y2= "263.94" />
   <line class="fil0 str0" x1="355.68" y1="263.94" x2="356.75" y2= "263.28" />
   <line class="fil0 str0" x1="356.75" y1="263.28" x2="357.82" y2= "262.64" />
   <line class="fil0 str0" x1="357.82" y1="262.64" x2="358.89" y2= "262.01" />
   <line class="fil0 str0" x1="358.89" y1="262.01" x2="359.96" y2= "261.39" />
   <line class="fil0 str0" x1="359.96" y1="261.39" x2="361.02" y2= "260.77" />
   <line class="fil0 str0" x1="361.02" y1="260.77" x2="362.09" y2= "260.18" />
   <line class="fil0 str0" x1="362.09" y1="260.18" x2="363.15" y2= "259.59" />
   <line class="fil0 str0" x1="363.15" y1="259.59" x2="364.21" y2= "259.01" />
   <line class="fil0 str0" x1="364.21" y1="259.01" x2="365.27" y2= "258.44" />
   <line class="fil0 str0" x1="365.27" y1="258.44" x2="366.33" y2= "257.89" />
   <line class="fil0 str0" x1="366.33" y1="257.89" x2="367.38" y2= "257.35" />
   <line class="fil0 str0" x1="367.38" y1="257.35" x2="368.43" y2= "256.82" />
   <line class="fil0 str0" x1="368.43" y1="256.82" x2="369.48" y2= "256.3" />
   <line class="fil0 str0" x1="369.48" y1="256.3" x2="370.53" y2= "255.79" />
   <line class="fil0 str0" x1="370.53" y1="255.79" x2="371.57" y2= "255.3" />
   <line class="fil0 str0" x1="371.57" y1="255.3" x2="372.61" y2= "254.81" />
   <line class="fil0 str0" x1="372.61" y1="254.81" x2="373.64" y2= "254.34" />
   <line class="fil0 str0" x1="373.64" y1="254.34" x2="374.67" y2= "253.88" />
   <line class="fil0 str0" x1="374.67" y1="253.88" x2="375.7" y2= "253.44" />
   <line class="fil0 str0" x1="375.7" y1="253.44" x2="376.72" y2= "253" />
   <line class="fil0 str0" x1="376.72" y1="253" x2="377.74" y2= "252.58" />
   <line class="fil0 str0" x1="377.74" y1="252.58" x2="378.76" y2= "252.17" />
   <line class="fil0 str0" x1="378.76" y1="252.17" x2="379.77" y2= "251.77" />
   <line class="fil0 str0" x1="379.77" y1="251.77" x2="380.77" y2= "251.39" />
   <line class="fil0 str0" x1="380.77" y1="251.39" x2="381.77" y2= "251.02" />
   <line class="fil0 str0" x1="381.77" y1="251.02" x2="382.77" y2= "250.66" />
   <line class="fil0 str0" x1="382.77" y1="250.66" x2="383.76" y2= "250.31" />
   <line class="fil0 str0" x1="383.76" y1="250.31" x2="384.74" y2= "249.98" />
   <line class="fil0 str0" x1="384.74" y1="249.98" x2="385.72" y2= "249.65" />
   <line class="fil0 str0" x1="385.72" y1="249.65" x2="386.69" y2= "249.34" />
   <line class="fil0 str0" x1="386.69" y1="249.34" x2="387.65" y2= "249.05" />
   <line class="fil0 str0" x1="387.65" y1="249.05" x2="388.61" y2= "248.76" />
   <line class="fil0 str0" x1="391.83" y1="318.04" x2="432.73" y2= "240.78" />
   <line class="fil0 str0" x1="388.61" y1="248.76" x2="389.57" y2= "248.49" />
   <line class="fil0 str0" x1="389.57" y1="248.49" x2="390.51" y2= "248.24" />
   <line class="fil0 str0" x1="391.45" y1="247.99" x2="390.51" y2= "248.24" />
   <line class="fil0 str0" x1="392.39" y1="247.76" x2="391.45" y2= "247.99" />
   <line class="fil0 str0" x1="393.31" y1="247.54" x2="392.39" y2= "247.76" />
   <line class="fil0 str0" x1="394.23" y1="247.33" x2="393.31" y2= "247.54" />
   <line class="fil0 str0" x1="395.14" y1="247.14" x2="394.23" y2= "247.33" />
   <line class="fil0 str0" x1="396.05" y1="246.96" x2="395.14" y2= "247.14" />
   <line class="fil0 str0" x1="396.94" y1="246.79" x2="396.05" y2= "246.96" />
   <line class="fil0 str0" x1="397.83" y1="246.64" x2="396.94" y2= "246.79" />
   <line class="fil0 str0" x1="397.83" y1="246.64" x2="432.73" y2= "240.78" />
   <line class="fil0 str0" x1="432.73" y1="240.78" x2="368.5" y2= "181.53" />
   <g id="Section_x0020_Element_2">
    <line class="fil0 str0" x1="379.68" y1="180.35" x2="442.34" y2= "173.79" />
    <line class="fil0 str0" x1="375.89" y1="188.35" x2="379.68" y2= "180.35" />
    <line class="fil0 str0" x1="402.81" y1="315.49" x2="396.54" y2= "309.15" />
    <line class="fil0 str0" x1="464.28" y1="301.2" x2="402.81" y2= "315.49" />
    <line class="fil0 str0" x1="464.28" y1="301.2" x2="506" y2= "228.48" />
    <line class="fil0 str0" x1="443.86" y1="238.91" x2="506" y2= "228.48" />
    <line class="fil0 str0" x1="443.86" y1="238.91" x2="402.81" y2= "315.49" />
    <line class="fil0 str0" x1="379.68" y1="180.35" x2="443.86" y2= "238.91" />
    <line class="fil0 str0" x1="506" y1="228.48" x2="442.34" y2= "173.79" />
   </g>
   <polygon class="fil1 str1" points="327.25,285.21 328.27,284.31 329.28,283.42 330.31,282.54 331.33,281.67 332.36,280.8 333.4,279.94 334.44,279.09 335.48,278.25 336.52,277.42 337.57,276.59 338.62,275.77 339.68,274.96 340.73,274.16 341.79,273.37 342.85,272.59 343.92,271.81 344.98,271.05 346.05,270.29 347.12,269.55 348.19,268.81 349.25,268.08 350.32,267.37 351.4,266.66 352.47,265.96 353.54,265.28 354.61,264.6 355.68,263.94 356.75,263.28 357.82,262.64 358.89,262.01 359.96,261.38 361.02,260.78 362.09,260.18 363.15,259.59 364.21,259.01 365.27,258.44 366.33,257.89 367.38,257.35 368.43,256.82 369.48,256.3 370.53,255.79 371.57,255.3 372.61,254.81 373.64,254.34 374.67,253.88 375.7,253.44 376.72,253 377.74,252.58 378.76,252.17 379.77,251.77 380.77,251.39 381.77,251.02 382.77,250.66 383.76,250.31 384.74,249.98 385.72,249.65 386.69,249.34 387.65,249.05 388.61,248.76 389.57,248.49 390.51,248.24 391.45,247.99 392.39,247.76 393.31,247.54 394.23,247.33 395.14,247.14 396.05,246.96 396.94,246.79 397.83,246.64 432.73,240.78 375.89,188.35 368.5,181.53 333.53,185.19 332.64,185.29 331.74,185.4 330.84,185.52 329.93,185.66 329.02,185.81 328.1,185.97 327.17,186.15 326.24,186.33 325.3,186.53 324.36,186.75 323.4,186.97 322.45,187.21 321.49,187.46 320.53,187.72 319.56,188 318.58,188.28 317.6,188.58 316.62,188.9 315.63,189.22 314.64,189.56 313.65,189.91 312.65,190.27 311.64,190.64 310.64,191.03 309.63,191.43 308.62,191.84 307.61,192.26 306.59,192.69 305.57,193.14 304.55,193.6 303.53,194.07 302.5,194.55 301.47,195.04 300.45,195.55 299.42,196.06 298.39,196.59 297.36,197.13 296.33,197.68 295.29,198.24 294.26,198.81 293.23,199.39 292.2,199.99 291.17,200.59 290.13,201.21 289.1,201.83 288.07,202.47 287.05,203.11 286.02,203.77 284.99,204.44 283.97,205.11 282.95,205.8 281.92,206.5 280.91,207.2 279.89,207.92 278.88,208.64 277.87,209.38 276.86,210.12 275.86,210.87 274.86,211.64 273.86,212.41 272.86,213.18 271.88,213.97 270.89,214.76 269.91,215.57 268.93,216.38 267.96,217.2 266.99,218.03 266.03,218.86 265.08,219.7 264.12,220.55 263.18,221.4 262.24,222.27 261.31,223.14 260.38,224.01 259.46,224.89 258.54,225.78 257.63,226.68 256.73,227.58 255.84,228.48 254.95,229.39 254.07,230.31 253.2,231.23 252.34,232.16 251.48,233.09 250.63,234.03 249.79,234.97 248.96,235.91 248.13,236.86 247.32,237.82 246.51,238.77 245.71,239.73 244.93,240.7 244.15,241.66 243.38,242.63 242.62,243.61 241.86,244.58 241.12,245.56 240.39,246.54 239.67,247.52 238.96,248.51 238.26,249.49 237.57,250.48 236.89,251.47 236.22,252.46 235.56,253.45 234.91,254.44 234.27,255.43 233.64,256.43 233.03,257.42 232.42,258.41 231.83,259.41 231.25,260.4 230.68,261.39 230.12,262.38 229.57,263.37 229.04,264.36 228.52,265.35 228,266.34 227.5,267.32 227.02,268.31 226.54,269.29 226.08,270.27 225.63,271.24 225.19,272.22 224.76,273.19 224.35,274.16 223.94,275.13 223.56,276.09 202.79,328.22 190.78,358.39 188.09,364.07 184.9,368.86 181.29,372.69 177.32,375.51 173.08,377.29 168.63,378.01 164.07,377.68 159.46,376.33 154.9,373.99 150.44,370.73 146.17,366.6 142.13,361.69 138.41,356.08 135.03,349.87 132.07,343.15 129.54,336.04 37.14,42.07 6,83.1 90.65,361.84 96.39,378.7 103.17,394.79 110.91,409.89 119.55,423.8 128.98,436.29 139.11,447.13 149.83,456.12 160.98,463.05 172.42,467.71 183.98,469.93 195.46,469.55 206.64,466.46 217.3,460.59 227.21,451.92 236.14,440.5 243.84,426.47 281.95,343.59 282.4,342.62 282.87,341.64 283.35,340.66 283.84,339.67 284.35,338.68 284.86,337.69 285.39,336.69 285.93,335.7 286.48,334.69 287.05,333.69 287.63,332.68 288.22,331.68 288.82,330.66 289.43,329.65 290.05,328.64 290.69,327.62 291.34,326.61 292,325.59 292.67,324.57 293.35,323.55 294.04,322.53 294.75,321.51 295.46,320.49 296.19,319.46 296.93,318.44 297.67,317.42 298.43,316.4 299.2,315.38 299.97,314.37 300.76,313.35 301.56,312.33 302.37,311.32 303.18,310.3 304.01,309.29 304.84,308.29 305.69,307.28 306.54,306.27 307.41,305.27 308.28,304.28 309.16,303.28 310.04,302.29 310.94,301.3 311.84,300.32 312.76,299.33 313.68,298.36 314.6,297.38 315.54,296.42 316.48,295.45 317.43,294.49 318.38,293.54 319.34,292.59 320.31,291.65 321.29,290.71 322.27,289.78 323.25,288.85 324.25,287.93 325.24,287.01 326.25,286.11 "/>
   <polygon class="fil1 str1" points="379.68,180.35 443.86,238.91 506,228.48 442.34,173.79 "/>
   <polygon class="fil2 str1" points="364.21,259.01 363.15,259.59 362.09,260.18 361.02,260.78 359.96,261.38 358.89,262.01 357.82,262.64 356.75,263.28 355.68,263.94 354.61,264.6 353.54,265.28 352.47,265.96 351.4,266.66 350.32,267.37 349.25,268.08 348.19,268.81 347.12,269.55 346.05,270.29 344.98,271.05 343.92,271.81 342.85,272.59 341.79,273.37 340.73,274.16 339.68,274.96 338.62,275.77 337.57,276.59 336.52,277.42 335.48,278.25 334.44,279.09 333.4,279.94 332.36,280.8 331.33,281.67 330.31,282.54 329.28,283.42 328.27,284.31 327.25,285.21 326.25,286.11 325.24,287.01 324.25,287.93 323.25,288.85 322.27,289.78 321.29,290.71 320.31,291.65 319.34,292.59 318.38,293.54 317.43,294.49 316.48,295.45 315.54,296.42 314.6,297.38 313.68,298.36 312.76,299.33 311.84,300.32 310.94,301.3 310.04,302.29 309.16,303.28 308.28,304.28 307.41,305.27 306.54,306.27 305.69,307.28 304.84,308.29 304.01,309.29 303.18,310.3 302.37,311.32 301.56,312.33 300.76,313.35 299.97,314.37 299.2,315.38 298.43,316.4 297.67,317.42 296.93,318.44 296.19,319.46 295.46,320.49 294.75,321.51 294.04,322.53 293.35,323.55 292.67,324.57 292,325.59 291.34,326.61 290.69,327.62 290.05,328.64 289.43,329.65 288.82,330.66 288.22,331.68 287.63,332.68 287.05,333.69 286.48,334.69 285.93,335.7 285.39,336.69 284.86,337.69 284.35,338.68 283.84,339.67 283.35,340.66 282.87,341.64 282.4,342.62 281.95,343.59 243.84,426.47 236.14,440.5 227.21,451.92 217.3,460.59 206.64,466.46 278.56,443.79 289.65,437.92 299.98,429.44 309.32,418.41 317.42,404.96 357.51,326.02 391.83,318.04 396.54,309.15 432.73,240.78 397.83,246.64 396.94,246.79 396.05,246.96 395.14,247.14 394.23,247.33 393.31,247.54 392.39,247.76 391.45,247.99 390.51,248.24 389.57,248.49 388.61,248.76 387.65,249.05 386.69,249.34 385.72,249.65 384.74,249.98 383.76,250.31 382.77,250.66 381.77,251.02 380.77,251.39 379.77,251.77 378.76,252.17 377.74,252.58 376.72,253 375.7,253.44 374.67,253.88 373.64,254.34 372.61,254.81 371.57,255.3 370.53,255.79 369.48,256.3 368.43,256.82 367.38,257.35 366.33,257.89 365.27,258.44 "/>
   <polygon class="fil2 str1" points="443.86,238.91 402.81,315.49 464.28,301.19 506,228.48 "/>
   <polygon class="fil2 str1" points="402.81,315.49 443.86,238.91 379.68,180.35 375.89,188.35 432.73,240.78 396.54,309.15 "/>
   <polygon class="fil2 str1" points="200.39,321.83 108.01,43.2 37.14,42.07 129.54,336.04 132.07,343.15 135.03,349.87 138.41,356.08 142.13,361.69 146.17,366.6 150.44,370.73 154.9,373.99 159.46,376.33 164.07,377.68 168.63,378.01 173.08,377.29 177.32,375.51 181.29,372.69 184.9,368.86 188.09,364.07 190.78,358.39 202.79,328.22 "/>
  </g>
 </g>
</svg>
